<svg width="71" height="71" viewBox="0 0 71 71" fill="none" xmlns="http://www.w3.org/2000/svg">
<g clip-path="url(#clip0_609_86)">
<path fill-rule="evenodd" clip-rule="evenodd" d="M35.5 41.7776L51.188 57.4656C52.0205 58.2981 53.1495 58.7658 54.3268 58.7658C55.5041 58.7658 56.6331 58.2981 57.4656 57.4656C58.298 56.6332 58.7657 55.5041 58.7657 54.3269C58.7657 53.1496 58.298 52.0205 57.4656 51.1881L41.7716 35.5L57.4626 19.812C57.8746 19.3998 58.2014 18.9105 58.4243 18.372C58.6472 17.8335 58.7619 17.2564 58.7617 16.6736C58.7616 16.0908 58.6467 15.5138 58.4235 14.9754C58.2004 14.437 57.8733 13.9479 57.4612 13.5359C57.049 13.1239 56.5597 12.7971 56.0212 12.5742C55.4827 12.3513 54.9056 12.2367 54.3228 12.2368C53.74 12.2369 53.1629 12.3519 52.6246 12.575C52.0862 12.7982 51.597 13.1252 51.1851 13.5374L35.5 29.2254L19.8119 13.5374C19.4028 13.1133 18.9133 12.7751 18.372 12.5422C17.8307 12.3094 17.2485 12.1867 16.6593 12.1813C16.0701 12.1759 15.4857 12.2879 14.9403 12.5108C14.3948 12.7337 13.8992 13.0629 13.4823 13.4794C13.0655 13.8958 12.7358 14.3911 12.5124 14.9364C12.289 15.4816 12.1765 16.0659 12.1813 16.6551C12.1861 17.2443 12.3083 17.8267 12.5406 18.3682C12.7729 18.9097 13.1107 19.3995 13.5343 19.809L29.2283 35.5L13.5373 51.191C13.1137 51.6006 12.7759 52.0904 12.5435 52.6319C12.3112 53.1734 12.1891 53.7557 12.1843 54.3449C12.1794 54.9341 12.292 55.5184 12.5154 56.0637C12.7387 56.6089 13.0685 57.1042 13.4853 57.5207C13.9021 57.9371 14.3978 58.2664 14.9432 58.4892C15.4887 58.7121 16.073 58.8241 16.6622 58.8187C17.2515 58.8133 17.8337 58.6906 18.375 58.4578C18.9162 58.225 19.4057 57.8867 19.8149 57.4627L35.5 41.7776Z" fill="black"/>
</g>
<defs>
<clipPath id="clip0_609_86">
<rect width="71" height="71" fill="white"/>
</clipPath>
</defs>
</svg>
