<svg width="169" height="183" viewBox="0 0 169 183" fill="none" xmlns="http://www.w3.org/2000/svg">
<path d="M61.6124 30.9014C62.6354 32.1238 64.1342 32.8247 65.7244 32.8247C66.9762 32.8247 68.1931 32.3837 69.1502 31.584C71.4176 29.6954 71.7269 26.3117 69.8383 24.0407L63.964 16.9934C62.145 14.8102 58.6131 14.4844 56.4244 16.309C55.3246 17.224 54.6456 18.5123 54.5175 19.9342C54.3876 21.3579 54.8213 22.7487 55.7363 23.8467L61.6124 30.9014ZM58.765 19.1217C59.1566 18.7959 59.5702 18.7264 59.8502 18.7264C60.3552 18.7264 60.831 18.9497 61.1531 19.3376L67.0256 26.3831C67.6222 27.1023 67.5252 28.1747 66.8078 28.7731C66.1197 29.3459 64.9961 29.2434 64.4215 28.5571L58.5472 21.5043C58.258 21.1585 58.1208 20.7174 58.1611 20.2673C58.2032 19.8189 58.4173 19.4108 58.765 19.1217ZM138.855 90.4386C137.032 88.2554 133.498 87.9333 131.315 89.7542C130.214 90.671 129.537 91.9612 129.408 93.3849C129.279 94.8068 129.712 96.1958 130.627 97.292L136.502 104.345C137.523 105.569 139.021 106.27 140.614 106.27C141.865 106.27 143.084 105.829 144.041 105.029C145.143 104.114 145.818 102.826 145.948 101.4C146.076 99.9766 145.644 98.5876 144.729 97.4896L138.855 90.4386ZM141.699 102.216C141.311 102.54 140.895 102.608 140.614 102.608C140.11 102.608 139.634 102.387 139.312 102.001L133.438 94.9477C133.149 94.6019 133.012 94.1627 133.052 93.7143C133.092 93.2641 133.308 92.8542 133.656 92.5651C134.047 92.2393 134.461 92.1716 134.741 92.1716C135.244 92.1716 135.722 92.393 136.044 92.7792L141.916 99.8283C142.206 100.176 142.343 100.617 142.303 101.067C142.262 101.517 142.048 101.926 141.699 102.216ZM107.15 75.191C108.171 76.4153 109.67 77.118 111.264 77.118C112.518 77.118 113.736 76.677 114.692 75.8755C116.959 73.9906 117.268 70.6069 115.38 68.334L109.505 61.2867C107.686 59.1035 104.151 58.7796 101.968 60.6005C100.866 61.5155 100.189 62.8019 100.059 64.2257C99.929 65.6494 100.361 67.0402 101.278 68.1401L107.15 75.191ZM104.306 63.415C104.698 63.0893 105.112 63.0197 105.392 63.0197C105.897 63.0197 106.372 63.243 106.694 63.6309L112.567 70.6764C113.164 71.3956 113.067 72.4662 112.347 73.0664C111.959 73.3903 111.546 73.458 111.264 73.458C110.761 73.458 110.287 73.2366 109.963 72.8486L104.089 65.7977C103.799 65.45 103.662 65.0089 103.702 64.5606C103.743 64.1104 103.959 63.706 104.306 63.415ZM127.743 70.0469C127.908 70.0616 128.073 70.0689 128.235 70.0689C131.019 70.0689 133.308 67.9754 133.563 65.2011L134.393 56.0675C134.662 53.1304 132.492 50.519 129.549 50.2463C126.574 49.9865 124.001 52.155 123.73 55.094L122.899 64.2293C122.756 65.8178 123.318 67.3751 124.449 68.5042C125.335 69.3918 126.508 69.9389 127.743 70.0469ZM127.373 55.427C127.452 54.5505 128.17 53.8917 129.196 53.8917C129.202 53.8917 129.207 53.8917 129.213 53.8917C130.144 53.9777 130.832 54.803 130.746 55.7327L129.915 64.868C129.835 65.7464 129.114 66.4089 128.234 66.4089L128.069 66.4016C127.573 66.3576 127.229 66.1124 127.033 65.9148C126.676 65.5579 126.497 65.0638 126.543 64.5624L127.373 55.427ZM45.0875 87.4905C42.1138 87.2288 39.5371 89.3992 39.2681 92.3381L38.4373 101.474C38.2946 103.062 38.8564 104.619 39.9873 105.748C40.8749 106.634 42.0479 107.181 43.2832 107.291C43.4479 107.306 43.6126 107.313 43.7754 107.313C46.5589 107.313 48.8482 105.22 49.1026 102.445L49.9352 93.3099C50.2024 90.3709 48.0283 87.7613 45.0875 87.4905ZM45.4554 102.112C45.3748 102.991 44.6538 103.653 43.7736 103.653L43.6089 103.646C43.113 103.602 42.7689 103.357 42.5731 103.159C42.2163 102.802 42.0369 102.308 42.0827 101.807L42.9135 92.6712C42.9922 91.7946 43.7096 91.1358 44.7362 91.1358C44.7417 91.1358 44.7472 91.1358 44.7526 91.1358C45.6841 91.2218 46.374 92.0472 46.288 92.9768L45.4554 102.112ZM74.3035 85.4262L65.1645 84.5954C63.5504 84.4527 62.0114 85.0163 60.8951 86.1418C60.0112 87.0238 59.4604 88.1969 59.3469 89.4431C59.217 90.8687 59.6507 92.2595 60.5657 93.3593C61.4825 94.4591 62.7727 95.1344 64.1964 95.2625L73.3281 96.0915C73.4946 96.1061 73.6612 96.1134 73.824 96.1134C76.6038 96.1134 78.8913 94.0217 79.1493 91.2438C79.4128 88.2993 77.2388 85.6916 74.3035 85.4262ZM73.8259 92.4516L64.5295 91.6153C64.0774 91.575 63.6675 91.3609 63.3784 91.0132C63.0892 90.6674 62.9538 90.2263 62.9941 89.7725C63.038 89.2692 63.2832 88.9289 63.4864 88.7276C63.7975 88.4146 64.211 88.2408 64.8003 88.2408C64.8131 88.2408 64.8259 88.2408 64.8369 88.2408L73.9759 89.0716C74.9037 89.1558 75.5918 89.9829 75.5076 90.9089C75.4253 91.7873 74.7024 92.4516 73.8259 92.4516ZM55.5588 69.0038L64.6905 69.8328C64.857 69.8474 65.0236 69.8548 65.1864 69.8548C67.9662 69.8548 70.2537 67.7631 70.5117 64.9851C70.7753 62.0443 68.5994 59.4366 65.6659 59.1694L56.5269 58.3386C54.9073 58.194 53.3738 58.7595 52.2575 59.8849C51.3736 60.767 50.8228 61.94 50.7093 63.1862C50.5794 64.6118 51.0131 66.0026 51.9281 67.1024C52.8449 68.2004 54.1351 68.8757 55.5588 69.0038ZM54.8469 62.4707C55.158 62.1578 55.5716 61.9839 56.1609 61.9839C56.1737 61.9839 56.1865 61.9839 56.1975 61.9839L65.3365 62.8148C66.2643 62.8989 66.9524 63.7261 66.8682 64.6521C66.7877 65.5305 66.0667 66.1948 65.1883 66.1948L55.8919 65.3585C55.4398 65.3182 55.0299 65.1041 54.7408 64.7564C54.4517 64.4105 54.3162 63.9695 54.3565 63.5156C54.4004 63.0124 54.6438 62.672 54.8469 62.4707ZM20.1007 75.4527L13.0534 81.327C11.8273 82.3482 11.1246 83.8469 11.1246 85.4409C11.1246 86.6834 11.5638 87.8986 12.3671 88.8685C13.3901 90.0927 14.8889 90.7955 16.4828 90.7955C17.7327 90.7955 18.9478 90.3544 19.9067 89.5547L26.9559 83.6822C29.2233 81.7937 29.5307 78.41 27.6421 76.1372C25.8195 73.954 22.2912 73.63 20.1007 75.4527ZM24.6153 80.8695L17.568 86.742C17.1782 87.0677 16.7646 87.1355 16.4846 87.1355C15.9796 87.1355 15.5019 86.9122 15.1835 86.5297C14.9237 86.2168 14.7864 85.8398 14.7864 85.4409C14.7864 84.9376 15.0078 84.4637 15.3976 84.1397L22.445 78.2654C22.8366 77.9397 23.2501 77.872 23.5301 77.872C24.0334 77.872 24.5092 78.0934 24.8313 78.4795C25.4278 79.2006 25.3327 80.273 24.6153 80.8695ZM101.248 90.3398L94.2029 96.2141C92.9768 97.2334 92.2723 98.7322 92.2723 100.328C92.2723 101.576 92.7133 102.791 93.5167 103.756C94.5378 104.98 96.0366 105.683 97.6305 105.683C98.8786 105.683 100.096 105.243 101.058 104.442L108.104 98.5693C110.371 96.6807 110.68 93.2971 108.79 91.0279C106.971 88.841 103.441 88.5153 101.248 90.3398ZM105.761 95.7566L98.7157 101.629C98.3241 101.955 97.9105 102.023 97.6305 102.023C97.1273 102.023 96.6514 101.799 96.3275 101.413C96.0677 101.102 95.9323 100.727 95.9323 100.328C95.9323 99.8247 96.1537 99.3507 96.5453 99.0268L103.591 93.1525C103.982 92.8268 104.396 92.759 104.676 92.759C105.179 92.759 105.655 92.9805 105.977 93.3684C106.576 94.0895 106.48 95.16 105.761 95.7566ZM78.8419 47.6148C80.0918 47.6148 81.3087 47.1756 82.2676 46.374L89.3186 40.5016C91.5823 38.613 91.8898 35.2293 90.0031 32.9583C88.1804 30.7751 84.6503 30.4549 82.4616 32.2721L75.4125 38.1482C74.1882 39.1712 73.4855 40.6699 73.4855 42.262C73.4855 43.5046 73.9247 44.7197 74.728 45.6896C75.7492 46.9139 77.2498 47.6148 78.8419 47.6148ZM77.7567 40.9591L84.804 35.0848C85.1938 34.759 85.6074 34.6913 85.8874 34.6913C86.3925 34.6913 86.8683 34.9146 87.1903 35.3007C87.7888 36.0199 87.6899 37.0923 86.9762 37.6888L79.9271 43.5613C79.5355 43.8871 79.1219 43.9548 78.8419 43.9548C78.3386 43.9548 77.861 43.7333 77.5426 43.3509C77.2827 43.0379 77.1455 42.661 77.1455 42.262C77.1455 41.7569 77.3687 41.283 77.7567 40.9591ZM166.018 79.9747C167.518 78.033 167.536 75.2405 165.902 73.275C164.394 71.4615 161.719 70.9491 159.596 71.8623C157.376 70.1201 154.802 68.808 151.956 68.0101C151.696 57.6505 147.165 48.3541 140.05 41.788C140.399 39.3853 139.085 36.9587 136.734 36.0309L128.201 32.66C126.727 32.0762 125.033 32.1915 123.668 32.9382C123.64 32.9528 123.62 32.9748 123.593 32.9876C121.098 32.391 118.513 32.0415 115.852 31.9811C113.98 26.987 109.557 23.2465 104.169 22.3406C103.915 22.2089 103.64 22.1156 103.335 22.1156C102.749 22.1156 102.171 22.0771 101.598 22.0277C101.219 19.667 99.2995 17.7602 96.8161 17.5351L89.6188 16.8818C85.4464 13.165 82.8038 7.80312 82.8038 1.83C82.8038 0.81801 81.9858 0 80.9738 0C58.0897 0 39.3779 18.1591 38.4611 40.8236C35.7143 41.0762 33.134 41.8979 30.8373 43.177C29.4538 43.0544 28.0283 43.4277 26.9394 44.3372C25.8378 45.2541 25.1607 46.5442 25.0326 47.968C25.0271 48.0174 25.0362 48.0668 25.0344 48.1144C22.5694 51.2217 21.0487 55.0922 20.8693 59.3121C8.69982 62.5933 0 73.8021 0 86.5316C0 98.756 7.65123 110.234 18.3165 114.284L35.5917 181.624C35.6429 181.827 35.7289 182.015 35.8424 182.184C35.8863 182.252 35.9522 182.299 36.0053 182.361C36.0839 182.451 36.1553 182.548 36.2486 182.621C36.3255 182.678 36.4152 182.711 36.4993 182.757C36.5908 182.804 36.6732 182.868 36.7702 182.901C36.955 182.963 37.1563 183 37.3613 183H131.068C131.273 183 131.476 182.963 131.663 182.899C131.762 182.865 131.844 182.802 131.934 182.755C132.018 182.709 132.108 182.676 132.185 182.619C132.278 182.546 132.349 182.449 132.428 182.36C132.481 182.299 132.545 182.25 132.591 182.182C132.704 182.014 132.788 181.827 132.842 181.622L150.172 114.071C160.828 111.529 168.435 102.019 168.435 90.929C168.435 86.9579 167.566 83.243 166.018 79.9747ZM159.305 76.5672L160.705 75.3997C161.095 75.0739 161.508 75.0062 161.788 75.0062C162.292 75.0062 162.768 75.2276 163.09 75.6156C163.688 76.3366 163.591 77.4072 162.875 78.0038L161.406 79.228L155.826 83.8762C155.437 84.202 155.023 84.2697 154.743 84.2697C154.238 84.2697 153.762 84.0464 153.44 83.6621C153.44 83.6621 153.44 83.6603 153.438 83.6603L153.436 83.6585C153.182 83.351 153.045 82.974 153.045 82.5751C153.045 82.0718 153.266 81.5979 153.654 81.274L155.932 79.3763L159.305 76.5672C159.303 76.5654 159.303 76.5654 159.305 76.5672ZM124.654 37.0172C124.843 36.5414 125.168 36.2871 125.412 36.1535C125.67 36.0144 125.95 35.9412 126.232 35.9412C126.442 35.9412 126.652 35.9815 126.856 36.0602L135.389 39.431C136.254 39.7751 136.681 40.7632 136.339 41.6343C136.081 42.2821 135.462 42.703 134.765 42.703C134.571 42.703 134.377 42.6628 134.192 42.5914C134.176 42.5859 134.157 42.5896 134.143 42.5823L129.311 40.6718L125.613 39.2114C125.401 39.1272 125.212 39.0065 125.053 38.8527C124.896 38.7008 124.768 38.516 124.678 38.3092C124.495 37.8956 124.488 37.4363 124.654 37.0172ZM85.5049 21.8813C85.5049 21.8795 85.5049 21.8795 85.5049 21.8777C85.5488 21.3781 85.7941 21.034 85.9917 20.8382L85.9935 20.8364C86.3119 20.518 86.7365 20.3423 87.1885 20.3423L87.2965 20.3514C87.302 20.3514 87.3056 20.3496 87.3111 20.3496C87.3239 20.3496 87.3367 20.3496 87.3477 20.3496L88.12 20.4191C88.1236 20.4228 88.1273 20.4246 88.131 20.4265L96.4849 21.1804C97.4146 21.2646 98.1008 22.0899 98.0166 23.0214C97.9361 23.898 97.2133 24.5604 96.3367 24.5604L96.1775 24.5531L87.2324 23.7406L87.0421 23.7223C86.5901 23.682 86.1802 23.4679 85.891 23.1221C85.6019 22.7762 85.4628 22.3352 85.5049 21.8813ZM79.2427 3.74784C79.6562 8.87001 81.6912 13.5402 84.8553 17.2496C84.3282 17.5076 83.8268 17.8242 83.4004 18.2524C82.5147 19.14 81.9675 20.3148 81.8577 21.5519C81.7278 22.9775 82.1615 24.3683 83.0765 25.4663C83.9933 26.5661 85.2835 27.2414 86.7072 27.3695L95.8408 28.2003C96.0055 28.2149 96.1702 28.2223 96.333 28.2223C98.2618 28.2223 99.9381 27.2011 100.877 25.6548C100.95 25.6621 101.025 25.6603 101.098 25.6657C101.278 25.7225 101.457 25.7792 101.655 25.7792C108.003 25.7792 113.165 30.9416 113.165 37.2899C113.165 44.7252 99.2134 49.529 77.6194 49.529C54.62 49.529 42.0735 44.9283 42.0735 42.5658C42.0754 21.6947 58.5984 4.66284 79.2427 3.74784ZM29.28 47.1499C29.6716 46.8242 30.0852 46.7565 30.3652 46.7565C30.7403 46.7565 31.0807 46.9139 31.3735 47.1371C31.4723 47.2122 31.5858 47.2652 31.6681 47.3641L31.67 47.3659L37.5406 54.4132C37.8298 54.7609 37.967 55.2019 37.9267 55.6521C37.8865 56.1023 37.6724 56.5104 37.3247 56.7995C37.3228 56.7995 37.3228 56.8014 37.3228 56.8014C37.3192 56.805 37.3119 56.805 37.3082 56.8087C37.1399 56.9459 36.9495 57.0393 36.7446 57.1033C36.7372 57.1052 36.7299 57.1052 36.7208 57.107C36.5652 57.1546 36.4042 57.193 36.2377 57.193C36.1919 57.193 36.1517 57.1674 36.1077 57.1637C36.0602 57.1601 36.0144 57.1381 35.9668 57.1308C35.7911 57.1015 35.6228 57.0722 35.4672 56.9917C35.2659 56.8929 35.0829 56.7593 34.9365 56.5836L34.9347 56.5818C34.9347 56.5799 34.9329 56.5799 34.9329 56.5799L31.0203 51.8823L29.0622 49.5326C28.989 49.4448 28.9543 49.3386 28.9012 49.2398C28.7438 48.9507 28.645 48.6341 28.6761 48.2992C28.7164 47.8472 28.9323 47.4391 29.28 47.1499ZM24.4854 60.1466C24.4854 57.2863 25.2632 54.6109 26.6009 52.2959L32.1275 58.9278C33.1504 60.1503 34.6492 60.8512 36.2395 60.8512C37.4912 60.8512 38.7082 60.4101 39.6653 59.6104C40.7669 58.6954 41.4422 57.4071 41.5721 55.9815C41.7002 54.5578 41.2683 53.1688 40.3533 52.0708L34.7846 45.3877C36.0876 44.9027 37.4674 44.5825 38.9058 44.4599C42.4615 51.3022 65.148 53.1853 77.6213 53.1853C102.171 53.1853 116.827 47.2415 116.827 37.2863C116.827 36.7446 116.796 36.212 116.741 35.685C118.222 35.7637 119.678 35.9192 121.104 36.1828C120.765 37.3668 120.82 38.6185 121.318 39.7659C121.887 41.078 122.936 42.0918 124.266 42.6152L132.792 45.9861C133.425 46.2368 134.088 46.363 134.763 46.363C136.073 46.363 137.287 45.8854 138.233 45.0747C144.436 51.1174 148.311 59.5336 148.336 68.8519C148.069 71.4304 143.143 75.3594 130.06 78.0202C117.567 80.5603 101.581 81.2355 85.0401 79.9143C48.6615 77.0101 23.9254 67.2415 24.4781 60.2912C24.4799 60.2656 24.4671 60.2436 24.4689 60.218C24.4708 60.1924 24.4854 60.1722 24.4854 60.1466ZM38.7814 179.34L22.1302 114.43L31.0167 113.123L44.4946 179.34H38.7814ZM48.2278 179.34L34.7737 113.235L43.9914 114.529L53.9685 179.34H48.2278ZM57.6724 179.34L47.688 114.467L56.6458 113.153L63.4461 179.34H57.6724ZM67.1281 179.34L60.3314 113.206L69.5949 114.531L72.92 179.34H67.1281ZM82.3848 179.34H76.5855L73.2586 114.476L82.3866 113.173L82.3848 179.34ZM91.8459 179.34H86.0429L86.0466 113.167L95.1765 114.445L91.8459 179.34ZM95.5114 179.34L98.8346 114.563L108.162 113.213L101.305 179.34H95.5114ZM104.987 179.34L111.851 113.147L120.747 114.43L110.757 179.34H104.987ZM114.461 179.34L124.431 114.565L133.491 113.248L120.198 179.34H114.461ZM129.65 179.34H123.933L137.261 113.079L146.371 114.157L129.65 179.34ZM148.433 110.717L136.013 109.246C135.854 109.225 135.693 109.229 135.535 109.253L135.438 109.267C135.436 109.267 135.433 109.267 135.431 109.267L123.067 111.065L110.488 109.251C110.473 109.249 110.459 109.253 110.446 109.251C110.435 109.249 110.428 109.244 110.417 109.242C110.386 109.24 110.362 109.253 110.331 109.251C110.21 109.246 110.085 109.235 109.965 109.253L97.4457 111.066L84.4691 109.251C84.4142 109.242 84.3575 109.253 84.3044 109.251C84.2715 109.249 84.2477 109.233 84.2148 109.233C84.1818 109.233 84.158 109.249 84.1251 109.251C84.0684 109.255 84.0116 109.244 83.9549 109.251L71.2291 111.066L58.5289 109.251C58.4136 109.235 58.2965 109.246 58.1812 109.253C58.1464 109.253 58.1171 109.238 58.0824 109.242C58.0696 109.244 58.0604 109.251 58.0476 109.253C58.033 109.255 58.0165 109.251 58.0037 109.253L45.653 111.066L32.7204 109.251C32.5484 109.225 32.3764 109.227 32.2007 109.253L20.0568 111.035C10.5353 107.675 3.65817 97.4493 3.65817 86.5316C3.65817 75.6248 10.9928 65.9935 21.3232 62.9721C25.5248 73.4141 55.7491 81.2465 84.751 83.5633C90.3691 84.0098 95.9304 84.2312 101.325 84.2312C112.12 84.2312 122.24 83.3437 130.79 81.6034C138.945 79.9472 148.541 76.9131 151.26 71.6134C153.169 72.1844 154.93 73.0353 156.5 74.137L151.314 78.4594C150.087 79.4806 149.385 80.9793 149.385 82.5733C149.385 83.8195 149.824 85.0346 150.627 86.0009C151.648 87.2251 153.147 87.9278 154.743 87.9278C155.991 87.9278 157.208 87.4868 158.167 86.6871L163.157 82.5312C164.206 85.0767 164.777 87.9169 164.777 90.929C164.775 100.621 157.916 108.901 148.433 110.717Z" fill="#6A2C70"/>
</svg>
