<svg width="29" height="26" viewBox="0 0 29 26" fill="none" xmlns="http://www.w3.org/2000/svg">
<g opacity="0.5">
<path d="M17.784 14.5545C14.7087 15.8261 14.7991 20.1178 14.7991 20.1178C14.7991 20.1178 16.7287 18.3693 19.3518 17.7335C22.789 16.899 24.0553 17.6938 24.0553 17.6938C24.0553 17.6938 23.0905 17.5348 18.99 18.6078C16.7287 19.2038 14.7991 21.2702 14.1358 22.1842C14.166 21.6278 14.166 21.1112 14.1358 20.7139C14.0454 19.482 13.1107 14.634 10.6685 11.4152C6.62833 6.13011 5.45246 5.33536 5.45246 5.33536C5.45246 5.33536 7.32179 5.65326 10.7589 10.0244C13.382 13.3624 14.5278 17.2567 14.5278 17.2567C14.5278 17.2567 17.0604 12.4881 14.3469 7.99779C9.04037 -0.625303 0.0253663 0.0105008 0.0253663 0.0105008C0.0253663 0.0105008 -0.637945 8.63359 4.8193 15.2301C7.9851 19.0449 11.4826 18.8462 12.9298 18.5283C13.1107 19.0449 13.2614 19.6807 13.4122 20.396C13.8343 22.4226 12.4775 23.8134 12.4775 23.8134C12.4775 23.8134 11.7539 24.33 12.9901 25.3234C13.6534 25.8798 13.8041 25.3234 13.8041 25.3234C13.8041 25.3234 13.8946 24.6082 13.985 23.6942C14.0152 23.2968 14.166 22.8994 14.4072 22.6213C14.4373 22.5815 14.4675 22.5815 14.4675 22.5418C14.769 22.1842 15.0705 21.906 15.3418 21.6676C16.1257 22.6213 18.2061 24.6479 21.3418 24.0121C26.7387 22.9392 29 17.2567 29 17.2567C29 17.2567 23.6935 12.0908 17.784 14.5545Z" fill="#84C109"/>
</g>
</svg>
