<svg width="71" height="71" viewBox="0 0 71 71" fill="none" xmlns="http://www.w3.org/2000/svg">
<path d="M59.1665 11.8334H11.8332C10.264 11.8334 8.75905 12.4567 7.64946 13.5663C6.53986 14.6759 5.9165 16.1808 5.9165 17.75V53.25C5.9165 54.8192 6.53986 56.3242 7.64946 57.4338C8.75905 58.5433 10.264 59.1667 11.8332 59.1667H59.1665C60.7357 59.1667 62.2406 58.5433 63.3502 57.4338C64.4598 56.3242 65.0832 54.8192 65.0832 53.25V17.75C65.0832 16.1808 64.4598 14.6759 63.3502 13.5663C62.2406 12.4567 60.7357 11.8334 59.1665 11.8334ZM59.1665 24.3649L35.4998 38.8075L11.8332 24.3649V17.75H59.1665V24.3649Z" fill="#111111"/>
</svg>
