<svg width="382" height="159" viewBox="0 0 382 159" fill="none" xmlns="http://www.w3.org/2000/svg">
<g clip-path="url(#clip0_693_120)">
<path d="M255.497 0L195.809 16.4803V73.8413C193.206 72.8557 189.741 72.6994 186.296 73.6212C180.339 75.2148 176.718 79.4138 178.207 83.0003C179.697 86.5868 185.732 88.201 191.69 86.6073C197.007 85.1848 200.452 81.6862 200.073 78.3997V26.7629L251.233 12.6212V49.9017C248.626 48.9024 245.143 48.7393 241.681 49.6656C235.723 51.2592 232.102 55.4583 233.592 59.0448C235.081 62.6313 241.116 64.2454 247.074 62.6518C252.083 61.3114 255.427 58.1287 255.484 55.0179H255.497V0Z" fill="#111111"/>
<path d="M147.491 0.525879V49.5777C144.835 48.5602 141.123 48.4701 137.595 49.4146C131.529 51.0379 127.839 55.3145 129.356 58.9672C130.872 62.6198 137.02 64.2648 143.088 62.6415C148.19 61.276 151.682 58.0352 151.739 54.8662H151.754V16.4963C151.754 16.4963 170.124 20.7638 175.913 37.0296C175.913 18.4401 156.018 15.3555 147.491 0.525879Z" fill="#111111"/>
<path d="M173.672 80.3778H123.332V82.6593H173.748C173.598 81.8984 173.576 81.1353 173.672 80.3778Z" fill="#111111"/>
<path d="M259.76 82.6593V80.3778H204.194C204.03 81.1535 203.753 81.9189 203.354 82.6593H259.76Z" fill="#111111"/>
<path d="M127.706 63.2667H123.332V65.5482H131.674C130.137 64.9767 128.792 64.2067 127.706 63.2667Z" fill="#111111"/>
<path d="M259.76 65.5482V63.2667H254.404C253.014 64.1839 251.402 64.963 249.604 65.5482H259.76Z" fill="#111111"/>
<path d="M231.907 63.2667H204.336V65.5482H235.821C234.296 64.979 232.982 64.2021 231.907 63.2667Z" fill="#111111"/>
<path d="M150.461 63.2667C149.045 64.1827 147.407 64.9619 145.582 65.5482H191.546V63.2667H150.461Z" fill="#111111"/>
<path d="M191.546 46.1556H156.018V48.4371H191.546V46.1556Z" fill="#111111"/>
<path d="M136.299 46.1556H123.332V48.4371H130.792C132.364 47.496 134.196 46.7169 136.248 46.167C136.265 46.1625 136.282 46.1602 136.299 46.1556Z" fill="#111111"/>
<path d="M204.336 48.4371H235.348C236.81 47.6101 238.476 46.9165 240.332 46.4191C240.707 46.3188 241.085 46.2366 241.463 46.1556H204.336V48.4371Z" fill="#111111"/>
<path d="M166.321 29.0444H156.018V31.3259H168.232C167.625 30.5137 166.986 29.754 166.321 29.0444Z" fill="#111111"/>
<path d="M143.227 29.0444H123.332V31.3259H143.227V29.0444Z" fill="#111111"/>
<path d="M204.336 31.3259H246.97V29.0444H204.913L204.336 29.2041V31.3259Z" fill="#111111"/>
<path d="M179.538 31.3259H191.546V29.0444H178.9C179.149 29.7768 179.359 30.5399 179.538 31.3259Z" fill="#111111"/>
<path d="M167.009 14.2148H192.629C193.105 13.7836 193.712 13.4414 194.424 13.2441L199.172 11.9333H164.098C164.104 11.9379 164.11 11.9413 164.114 11.9459C165.08 12.6954 166.049 13.4483 167.009 14.2148Z" fill="#111111"/>
<path d="M143.227 11.9333H123.332V14.2148H143.227V11.9333Z" fill="#111111"/>
<path d="M13.3227 111.293H7.67665V118.568H13.0751C16.3934 118.568 18.424 117.057 18.424 114.95C18.424 112.843 16.74 111.293 13.3227 111.293ZM7.67665 123.617V132.88H0V105.648H14.4618C21.6927 105.648 26.1501 109.385 26.1501 114.712C26.1501 118.966 22.6337 122.504 16.8886 123.418L27.6855 132.88H17.6811L7.67665 123.617ZM52.4984 132.88V122.225H38.1356V132.88H30.459V105.648H38.1356V116.58H52.4984V105.648H60.175V132.88H52.4984ZM82.7592 132.88H75.033V122.702L62.7009 105.648H71.17L78.9952 117.097L86.8699 105.648H95.0914L82.7592 122.742V132.88ZM114.011 132.88H106.334V111.293H96.2305V105.648H124.114V111.293H114.011V132.88ZM148.977 132.88V122.225H134.614V132.88H126.937V105.648H134.614V116.58H148.977V105.648H156.653V132.88H148.977ZM177.355 132.88L168.193 116.62V132.88H160.813V105.648H170.025L179.98 123.657L189.935 105.648H199.147V132.88H191.619V116.54L182.407 132.88H177.355ZM223.514 112.684C223.514 113.917 224.406 115.07 225.594 116.143C228.318 115.268 230.448 114.274 230.448 112.287C230.448 110.776 229.111 109.742 227.179 109.742C225.248 109.742 223.514 110.776 223.514 112.684ZM230.448 127.553L223.267 121.629C221.286 122.464 219.899 123.458 219.899 125.128C219.899 127.274 222.276 128.467 225.545 128.467C227.427 128.467 229.012 128.149 230.448 127.553ZM236.986 132.88L235.054 131.29C232.429 132.562 229.16 133.317 225.347 133.317C217.868 133.317 212.668 130.494 212.668 125.247C212.668 121.51 215.392 119.403 219.453 117.972C218.066 116.54 216.828 114.791 216.828 112.764C216.828 108.271 220.988 105.131 227.179 105.131C232.974 105.131 236.986 108.033 236.986 111.929C236.986 116.143 233.469 118.091 229.408 119.482L235.153 124.054C237.134 121.669 238.273 118.528 238.471 115.745H245.257C244.86 119.8 243.275 124.372 240.007 127.831L246.346 132.88H236.986ZM272.348 111.293H266.702V118.568H272.1C275.418 118.568 277.449 117.057 277.449 114.95C277.449 112.843 275.765 111.293 272.348 111.293ZM266.702 123.617V132.88H259.025V105.648H273.487C280.718 105.648 285.175 109.385 285.175 114.712C285.175 118.966 281.659 122.504 275.914 123.418L286.71 132.88H276.706L266.702 123.617ZM297.161 132.88H289.484V105.648H297.161V132.88ZM323.955 123.219H308.948V132.88H301.271V105.648H325.242V111.293H308.948V117.813H323.955V123.219ZM351.293 123.219H336.287V132.88H328.61V105.648H352.581V111.293H336.287V117.813H351.293V123.219ZM368.281 133.397C359.713 133.397 355.008 129.978 354.562 124.372H362.239C362.387 126.439 363.873 128.507 368.479 128.507C372.342 128.507 374.323 127.274 374.323 125.565C374.323 123.458 371.005 122.901 367.142 122.225C361.744 121.192 355.156 119.92 355.156 113.44C355.156 108.669 359.762 105.131 367.885 105.131C376.156 105.131 380.712 108.748 381.208 114.076H373.481C373.333 111.889 371.847 110.14 367.687 110.14C364.616 110.14 362.585 111.134 362.585 112.923C362.585 115.229 365.953 115.865 369.816 116.58C375.363 117.574 382 118.687 382 124.81C382 129.779 377.146 133.397 368.281 133.397Z" fill="#111111"/>
<path d="M60.5045 156.724H69.2489L69.0716 158.763H57.8457V142.164H60.5045V156.724ZM76.2311 158.763V142.164H78.8899V158.763H76.2311ZM85.8721 142.164H88.7672L95.0301 154.305L101.323 142.164H104.218L95.2074 159H94.8824L85.8721 142.164ZM123.637 156.724L123.814 158.763H111.229V142.164H123.223L123.43 144.203H113.888V148.258H120.358V150.297H113.888V156.724H123.637ZM158.192 144.203H152.166V158.763H149.507V144.203H143.451L143.628 142.164H158.015L158.192 144.203ZM178.084 142.164H180.743V158.763H178.084V151.127H167.833V158.763H165.174V142.164H167.833V149.088H178.084V142.164ZM201.905 156.724L202.083 158.763H189.498V142.164H201.492L201.699 144.203H192.157V148.258H198.626V150.297H192.157V156.724H201.905ZM243.314 141.927H243.639V158.763H241.01V147.594L233.684 155.277H233.506L226.18 147.618V158.763H223.551V141.927H223.846L233.595 151.886L243.314 141.927ZM252.187 152.194V142.164H254.846V152.028C254.846 155.23 257.15 156.866 260.4 156.866C263.649 156.866 265.983 155.23 265.983 152.028V142.164H268.612V152.194C268.612 156.51 265.54 159 260.4 159C255.289 159 252.187 156.51 252.187 152.194ZM276.038 157.032C277.338 158.004 280.026 159 282.714 159C286.85 159 289.479 157.293 289.479 154.613C289.479 152.431 288.18 151.151 283.689 149.112C280.262 147.523 279.435 147.001 279.435 145.958C279.435 144.843 280.735 143.966 282.921 143.966C284.191 143.966 285.875 144.416 286.85 144.914L288.268 143.207C286.88 142.472 284.694 141.927 282.951 141.927C279.14 141.927 276.599 143.681 276.599 145.981C276.599 148.021 277.869 149.04 281.769 150.748C285.225 152.265 286.643 153.38 286.643 154.589C286.643 156.012 285.107 156.866 282.714 156.866C280.646 156.866 278.578 156.083 277.544 155.325L276.038 157.032ZM297.082 158.763V142.164H299.741V158.763H297.082ZM307.668 150.463C307.668 145.673 312.365 141.927 318.274 141.927C320.755 141.927 323.119 142.59 325.216 143.871L323.887 145.531C322.144 144.464 320.342 143.942 318.274 143.942C313.813 143.942 310.327 146.811 310.327 150.463C310.327 154.115 313.843 156.984 318.274 156.984C320.519 156.984 322.439 156.415 323.887 155.301L325.246 156.937C323.444 158.241 320.903 159 318.274 159C312.365 159 307.668 155.23 307.668 150.463Z" fill="#111111"/>
</g>
<defs>
<clipPath id="clip0_693_120">
<rect width="382" height="159" fill="white"/>
</clipPath>
</defs>
</svg>
