<svg width="137" height="103" viewBox="0 0 137 103" fill="none" xmlns="http://www.w3.org/2000/svg">
<path d="M24.1592 0.616333V58.1039C21.5031 56.9114 17.7911 56.8058 14.2639 57.9128C8.19708 59.8152 4.50782 64.8273 6.02417 69.1081C7.54052 73.389 13.6883 75.3168 19.7566 73.4144C24.8584 71.8141 28.3501 68.0159 28.407 64.3019H28.4226V19.3332C28.4226 19.3332 46.7922 24.3346 52.5818 43.3978C52.5818 21.6113 32.686 17.9963 24.1592 0.616333Z" fill="#111111"/>
<path d="M132.165 0L72.4778 19.3145V86.5402C69.8743 85.3851 66.4096 85.202 62.9648 86.2822C57.0074 88.1499 53.3863 93.0711 54.8757 97.2744C56.365 101.478 62.4006 103.369 68.358 101.502C73.6758 99.8346 77.1207 95.7342 76.7412 91.8826V31.3655L127.902 14.7917V58.4836C125.294 57.3125 121.811 57.1213 118.349 58.2069C112.392 60.0745 108.771 64.9958 110.26 69.199C111.749 73.4023 117.785 75.294 123.742 73.4264C128.752 71.8555 132.096 68.1255 132.153 64.4797H132.165V0Z" fill="#111111"/>
<path d="M50.3407 94.2008H0V96.8746H50.416C50.2668 95.9829 50.2441 95.0885 50.3407 94.2008Z" fill="#111111"/>
<path d="M136.429 96.8746V94.2008H80.8624C80.6989 95.1099 80.4218 96.007 80.0225 96.8746H136.429Z" fill="#111111"/>
<path d="M4.37424 74.1471H0V76.8209H8.34204C6.8058 76.1511 5.45999 75.2487 4.37424 74.1471Z" fill="#111111"/>
<path d="M136.428 76.8209V74.1471H131.072C129.682 75.222 128.071 76.1351 126.273 76.8209H136.428Z" fill="#111111"/>
<path d="M108.576 74.1471H81.0044V76.8209H112.49C110.965 76.1538 109.65 75.2434 108.576 74.1471Z" fill="#111111"/>
<path d="M27.1292 74.1471C25.7138 75.2206 24.0752 76.1338 22.2505 76.8209H68.2141V74.1471H27.1292Z" fill="#111111"/>
<path d="M68.2143 54.0933H32.686V56.7671H68.2143V54.0933Z" fill="#111111"/>
<path d="M12.9678 54.0933H0V56.7671H7.46094C9.03271 55.6641 10.8645 54.751 12.9167 54.1066C12.9337 54.1013 12.9508 54.0986 12.9678 54.0933Z" fill="#111111"/>
<path d="M81.0044 56.7671H112.016C113.479 55.7978 115.144 54.985 117 54.4021C117.375 54.2844 117.753 54.1882 118.131 54.0933H81.0044V56.7671Z" fill="#111111"/>
<path d="M42.9892 34.0394H32.686V36.7133H44.9007C44.2938 35.7614 43.6543 34.871 42.9892 34.0394Z" fill="#111111"/>
<path d="M19.8958 34.0394H0V36.7133H19.8958V34.0394Z" fill="#111111"/>
<path d="M81.0044 36.7133H123.638V34.0394H81.5814L81.0044 34.2266V36.7133Z" fill="#111111"/>
<path d="M56.2069 36.7133H68.2141V34.0394H55.5688C55.8175 34.8977 56.0279 35.7921 56.2069 36.7133Z" fill="#111111"/>
<path d="M43.6771 16.6594H69.2972C69.7733 16.1541 70.3801 15.753 71.0921 15.5217L75.8401 13.9856H40.7666C40.7723 13.9909 40.778 13.995 40.7822 14.0003C41.7486 14.8787 42.7178 15.761 43.6771 16.6594Z" fill="#111111"/>
<path d="M19.8958 13.9856H0V16.6594H19.8958V13.9856Z" fill="#111111"/>
</svg>
