<svg width="71" height="71" viewBox="0 0 71 71" fill="none" xmlns="http://www.w3.org/2000/svg">
<path d="M59.0188 62.125C52.8556 62.125 46.7663 60.7819 40.751 58.0958C34.7358 55.4096 29.2628 51.6002 24.3323 46.6677C19.4017 41.7352 15.5934 36.2623 12.9072 30.249C10.221 24.2357 8.87697 18.1464 8.875 11.9813C8.875 11.0938 9.17083 10.3542 9.7625 9.7625C10.3542 9.17083 11.0938 8.875 11.9813 8.875H23.9625C24.6528 8.875 25.2691 9.10969 25.8115 9.57908C26.3538 10.0485 26.6743 10.6027 26.7729 11.2417L28.6958 21.5958C28.7944 22.3847 28.7698 23.0503 28.6219 23.5927C28.474 24.1351 28.2028 24.6035 27.8083 24.9979L20.6344 32.2458C21.6205 34.0701 22.791 35.8323 24.1459 37.5324C25.5008 39.2324 26.9928 40.8723 28.6219 42.4521C30.1503 43.9806 31.7528 45.3986 33.4292 46.7062C35.1056 48.0137 36.8806 49.2089 38.7542 50.2917L45.7062 43.3396C46.15 42.8958 46.7298 42.5635 47.4457 42.3426C48.1617 42.1217 48.8638 42.0596 49.5521 42.1562L59.7583 44.2271C60.4486 44.4243 61.0156 44.7823 61.4594 45.301C61.9031 45.8197 62.125 46.3985 62.125 47.0375V59.0188C62.125 59.9063 61.8292 60.6458 61.2375 61.2375C60.6458 61.8292 59.9063 62.125 59.0188 62.125Z" fill="#111111"/>
</svg>
